<svg xmlns="http://www.w3.org/2000/svg" width="1200" height="630" viewBox="0 0 1200 630" role="img" aria-label="Perenne — an OS that remembers">
  <title>Perenne — an OS that remembers</title>
  <defs>
    <radialGradient id="og-field" cx="26%" cy="46%" r="70%">
      <stop offset="0%" stop-color="#12271D"/>
      <stop offset="100%" stop-color="#0C1210"/>
    </radialGradient>
    <radialGradient id="og-sprout-glow" cx="50%" cy="52%" r="40%">
      <stop offset="0%" stop-color="#63D89C" stop-opacity="0.16"/>
      <stop offset="100%" stop-color="#63D89C" stop-opacity="0"/>
    </radialGradient>
  </defs>

  <rect width="1200" height="630" fill="url(#og-field)"/>
  <rect width="1200" height="630" fill="none"/>

  <!-- mark: renewal ring + sprout -->
  <circle cx="300" cy="315" r="150" fill="url(#og-sprout-glow)"/>
  <g fill="none" stroke-linecap="round" transform="rotate(-90 300 315)">
    <circle cx="300" cy="315" r="120" stroke="#63D89C" stroke-width="10" stroke-dasharray="528 226"/>
    <circle cx="300" cy="315" r="120" stroke="#E8A44C" stroke-width="10" stroke-dasharray="144 610" stroke-dashoffset="-569"/>
  </g>
  <g transform="translate(188 192.5) scale(7)" stroke-linecap="round">
    <path d="M16 29V13" fill="none" stroke="#63D89C" stroke-width="2.4"/>
    <path d="M16 17C16 12 12 9 6 9c0 6 4 8 10 8z" fill="#63D89C"/>
    <path d="M16 14c0-5 4-8 10-8 0 6-4 8-10 8z" fill="#3FA876"/>
  </g>
  <circle cx="300" cy="411" r="9" fill="#E8A44C"/>

  <!-- wordmark + copy -->
  <g font-family="'Space Grotesk','Segoe UI',system-ui,sans-serif">
    <text x="560" y="268" font-size="108" font-weight="700" fill="#E9EEE9" letter-spacing="-1">Perenne</text>
    <text x="562" y="332" font-size="40" font-weight="600" fill="#63D89C" font-family="'IBM Plex Sans','Segoe UI',sans-serif">An OS that remembers.</text>
    <text x="562" y="378" font-size="25" font-weight="400" fill="#9DB0A6" font-family="'IBM Plex Sans','Segoe UI',sans-serif">Secure &#183; self-healing &#183; post-quantum microkernel, from scratch in Rust.</text>
  </g>

  <!-- self-healing strip -->
  <g font-family="'IBM Plex Mono','Consolas',monospace" font-size="22">
    <circle cx="572" cy="452" r="6" fill="#E8A44C"/>
    <text x="590" y="459" fill="#C7D2CB">detect</text>
    <text x="682" y="459" fill="#5C6B62">&#8594;</text>
    <text x="712" y="459" fill="#C7D2CB">diagnose</text>
    <text x="838" y="459" fill="#5C6B62">&#8594;</text>
    <text x="868" y="459" fill="#63D89C">heal</text>
    <text x="932" y="459" fill="#5C6B62">&#8594;</text>
    <text x="962" y="459" fill="#63D89C">learn</text>
  </g>

  <!-- url -->
  <text x="562" y="540" font-family="'IBM Plex Mono','Consolas',monospace" font-size="22" fill="#7C8C82">perenne-os.github.io/perenne</text>
</svg>
